<svg id="Layer_1" xmlns="http://www.w3.org/2000/svg" viewBox="0 0 192.5 72.8"><style>.st0{fill:#FFFFFF;} .st1{fill:#F15A22;}</style><path d="M1.6 1.4h58.6V60H1.6z"/><path class="st0" d="M7.3 7.1h47.3v47.3H7.3z"/><path d="M25.9 25.5H71v45.1H25.9z"/><path class="st1" d="M31.3 30.9h34.3v34.3H31.3z"/><path d="M124 57.5c-.4 1.1-1.1 2.1-1.9 3-.9.9-1.8 1.6-3 2.2-1.1.6-2.3 1.1-3.6 1.5-1.3.4-2.6.5-3.9.5-1.9 0-3.7-.4-5.4-1.1-1.7-.7-3.2-1.7-4.6-3-1.3-1.3-2.4-2.8-3.3-4.6-.8-1.6-1.3-3.5-1.5-5.4H134l.1-.4c.1-.3.1-.7.1-1.3v-1.8c0-3-.5-6-1.6-8.8-1.1-2.8-2.6-5.4-4.6-7.5-2-2.1-4.4-3.9-7.3-5.2-2.8-1.3-6-1.9-9.5-1.9-3.4 0-6.6.6-9.5 1.9-2.9 1.3-5.4 3-7.4 5.2-2.1 2.2-3.7 4.7-4.8 7.6-1.1 2.9-1.7 5.9-1.7 9.2 0 3.2.6 6.3 1.7 9.2 1.1 2.9 2.8 5.5 4.8 7.6 2 2.2 4.5 3.9 7.4 5.2 2.9 1.3 6.1 1.9 9.5 1.9 2.3 0 4.5-.3 6.6-.9 2.1-.6 4-1.4 5.8-2.4 1.7-1 3.3-2.3 4.6-3.7 1.3-1.4 2.4-3 3.2-4.7l.2-.5-7.5-2.1-.1.3zm-12.6-27.1c1.9 0 3.8.4 5.5 1 1.7.7 3.3 1.7 4.6 2.9 1.3 1.2 2.4 2.7 3.3 4.5.8 1.6 1.3 3.4 1.5 5.2H96.8c.2-1.9.7-3.6 1.4-5.2.8-1.7 1.9-3.2 3.2-4.5 1.3-1.2 2.8-2.2 4.6-2.9 1.6-.7 3.5-1 5.4-1zM190.9 7.8h-52v8.1h34.9l-41.2 54.6h52.5v-8.1h-35.5z"/></svg>
